<svg width="17" height="20" viewBox="0 0 17 20" fill="none" xmlns="http://www.w3.org/2000/svg">
<path d="M5.50031 9V4C5.50031 3.20435 5.81638 2.44129 6.37898 1.87868C6.94159 1.31607 7.70466 1 8.50031 1C9.29595 1 10.059 1.31607 10.6216 1.87868C11.1842 2.44129 11.5003 3.20435 11.5003 4V9M2.83129 6H14.1703C14.4587 5.99997 14.7436 6.06229 15.0057 6.1827C15.2677 6.30311 15.5006 6.47876 15.6883 6.6976C15.8761 6.91645 16.0144 7.17331 16.0936 7.45059C16.1728 7.72786 16.1911 8.01898 16.1473 8.304L14.8923 16.456C14.7833 17.1644 14.4243 17.8105 13.8803 18.2771C13.3362 18.7438 12.6431 19.0002 11.9263 19H5.07429C4.35769 19 3.66477 18.7434 3.12092 18.2768C2.57707 17.8102 2.21822 17.1643 2.10929 16.456L0.854294 8.304C0.810462 8.01898 0.828782 7.72786 0.907999 7.45059C0.987216 7.17331 1.12545 6.91645 1.31324 6.6976C1.50102 6.47876 1.73391 6.30311 1.99594 6.1827C2.25796 6.06229 2.54293 5.99997 2.83129 6Z" stroke="black" stroke-linecap="round" stroke-linejoin="round"/>
</svg>
